<svg width="259" height="60" viewBox="0 0 259 60" fill="none" xmlns="http://www.w3.org/2000/svg">
<g clip-path="url(#clip0)">
<path d="M178.943 1.19922H190.909V58.0979H178.943V1.19922Z" fill="#530EAA"/>
<path d="M258.999 50.9856L251.063 59.8347L244.855 54.211C239.838 57.4777 233.876 59.3385 227.215 59.3385C209.74 59.3385 196.418 46.313 196.418 29.814V29.6486C196.418 13.1496 209.905 -0.0412903 227.38 -0.0412903C244.855 6.05136e-05 258.218 13.0256 258.218 29.5245V29.6899C258.218 35.7685 256.367 41.3922 253.201 46.0235L258.999 50.9856Z" fill="#530EAA"/>
<path d="M216.443 28.284C216.69 26.9608 217.306 26.1338 217.348 26.0511C217.594 25.7203 218.088 25.6376 218.417 25.8857C218.746 26.1338 218.828 26.5473 218.581 26.8781C218.211 27.4156 217.718 28.9043 217.923 30.2275C218.17 31.5507 218.54 32.5845 220.719 32.998C222.076 33.2461 222.241 34.3212 222.323 35.0655C222.446 35.9339 222.569 36.9677 223.885 38.1255C224.42 38.5804 225.078 38.9112 225.777 39.2833C226.106 39.4487 226.476 39.6555 226.846 39.8622C227.38 38.7044 227.833 36.7196 227.791 35.5618C227.75 34.1145 227.257 32.7085 226.352 31.5507L226.147 31.3026L226.229 31.0132C226.352 30.4756 226.393 29.8967 226.393 29.3591C226.106 29.4418 225.777 29.5245 225.407 29.5245C223.926 29.5245 222.816 28.9456 222.035 28.0359C220.719 26.4646 221.007 24.6865 221.089 23.7768C221.171 22.8671 221.213 22.1227 221.336 21.089C221.5 19.4763 221.706 17.4501 221.542 16.7471C221.048 14.5555 219.897 14.5969 219.486 14.5969C219.074 14.5969 218.704 14.3074 218.704 13.8939C218.704 13.4804 219.033 13.1496 219.445 13.1496C220.514 13.1083 222.364 13.4804 223.022 16.4577C223.227 17.4088 223.022 19.3522 222.816 21.2544C222.693 22.2881 222.611 23.0325 222.611 23.9008C222.611 24.7278 222.446 26.2992 223.227 27.2089C223.721 27.7878 224.461 28.1186 225.489 28.16C225.859 28.2013 226.681 27.8292 227.092 27.0848C227.339 26.5059 227.462 25.8857 227.462 25.2241C227.421 24.273 227.092 23.4046 226.476 22.6603L226.106 22.2054L226.476 21.7506C227.216 20.9236 227.586 19.8898 227.545 18.8147C227.504 17.905 227.216 17.0779 226.64 16.3336L226.311 15.8788L226.681 15.4239C227.38 14.5969 227.75 13.5631 227.709 12.5294C227.627 9.96561 225.859 8.22888 223.433 8.31158C221.747 8.35293 220.472 9.05589 219.773 10.7099C218.047 10.2551 216.073 11.7437 215.621 13.2323C215.168 14.7623 215.456 16.6231 217.389 18.9387C217.676 19.2695 217.964 19.6003 218.293 19.8484C218.622 20.0966 218.622 20.5514 218.375 20.8822C218.211 21.0476 218.047 21.1303 217.841 21.1303C217.635 21.1303 217.471 21.089 217.306 20.9649C216.936 20.6341 216.566 20.262 216.196 19.8484C214.798 18.1944 214.305 16.2923 214.14 15.0518C211.221 17.0779 210.851 20.7582 212.167 22.7844C210.481 25.2654 213.112 28.4494 216.443 28.284Z" fill="white"/>
<path d="M225.078 40.6066C224.296 40.2758 223.556 39.8209 222.898 39.242C221.171 37.712 221.007 36.2647 220.884 35.2723C220.801 34.4867 220.76 34.4867 220.514 34.4453C219.28 34.2386 218.417 33.825 217.8 33.2875C217.06 33.6183 216.32 33.7423 215.662 33.7837C213.688 33.8664 212.167 32.9153 212.084 32.874C211.714 32.6672 211.632 32.2124 211.879 31.8816C212.126 31.5508 212.578 31.4681 212.948 31.6748C213.03 31.7162 214.88 32.8326 216.895 32.1297C216.69 31.7162 216.32 30.8064 216.32 29.7727C213.112 29.8554 210.111 27.9532 209.987 24.7279C205.835 30.8891 210.769 36.6783 216.443 38.2909C217.964 38.7458 219.074 40.2758 219.074 41.8471C219.074 42.1366 219.033 42.5501 218.869 43.0049C219.486 43.129 220.185 43.3357 220.884 43.6665C220.719 42.5501 220.842 41.6403 220.842 41.599C220.925 41.1855 221.295 40.9374 221.706 40.9787C222.117 41.0201 222.405 41.3922 222.364 41.8057C222.364 41.8057 221.994 44.1214 223.022 45.1965C223.556 45.7754 224.091 46.7265 224.255 47.7603C224.296 48.1738 224.009 48.5046 223.597 48.5873C223.556 48.5873 223.556 48.5873 223.515 48.5873C223.145 48.5873 222.775 48.3392 222.734 47.967C222.282 44.8657 219.116 44.4522 218.005 44.3281C217.512 44.8244 216.772 45.3206 215.662 45.6927C215.579 45.7341 215.497 45.7341 215.415 45.7341C215.086 45.7341 214.798 45.5687 214.675 45.2379C214.551 44.8657 214.757 44.4522 215.127 44.3281C216.648 43.8319 217.471 42.9222 217.471 41.8471C217.471 40.896 216.772 39.9036 215.867 39.6142C212.701 38.6217 210.399 37.0091 208.96 34.8588C207.109 39.7382 211.139 41.8058 213.688 41.4749C214.099 41.4336 214.51 41.7231 214.551 42.0952C214.593 42.5087 214.305 42.8395 213.894 42.9222C213.688 42.9636 213.482 42.9636 213.277 42.9636C212.372 43.0049 211.591 42.8395 210.933 42.6328C210.316 45.3206 213.071 49.8278 218.046 47.967C218.663 51.4818 223.844 53.1359 226.805 49.7865C229.847 46.4784 227.791 41.7644 225.078 40.6066Z" fill="white"/>
<path d="M228.778 18.2772C228.778 18.4426 228.819 18.6493 228.819 18.8147C229.395 18.029 230.094 17.3674 230.505 16.9953C230.669 16.8712 230.834 16.7058 230.998 16.5818C232.602 15.2999 233.424 14.6383 233.301 12.488C233.26 12.1159 233.589 11.7851 234 11.7437C234.411 11.7024 234.781 11.9918 234.781 12.4053C234.987 15.2585 233.712 16.2923 231.985 17.6569C231.821 17.7809 231.656 17.905 231.492 18.0704C230.834 18.608 230.011 19.559 229.477 20.4687L229.312 20.7996C229.025 21.4198 228.86 22.0814 228.901 22.743C228.901 23.3633 229.066 23.9836 229.395 24.5625L229.559 24.8519L229.436 25.1414C229.107 25.927 228.983 26.7127 228.983 27.5397C229.025 28.2013 229.148 28.863 229.395 29.4832C229.929 28.7803 230.628 28.2013 231.492 27.7465C232.725 27.0849 234.123 26.7954 235.192 26.9195C236.714 25.2241 238.769 24.2317 241.031 24.149H241.072C242.388 24.1076 244.978 24.4798 246.13 26.0511C246.623 23.2392 245.636 20.965 242.717 20.3447C243.292 18.029 241.812 15.8788 240.496 15.1758C239.962 16.7885 239.057 17.6569 238.112 18.3599C238.441 18.8147 239.304 20.0966 239.304 21.4612C239.304 21.8333 238.975 22.1641 238.564 22.1641C238.153 22.1641 237.824 21.8747 237.824 21.4612C237.824 20.5101 237.166 19.5177 236.919 19.1455C235.727 19.9312 234.617 20.7996 233.876 22.9498C233.794 23.2392 233.506 23.446 233.177 23.446C233.095 23.446 233.013 23.446 232.931 23.4047C232.52 23.2806 232.314 22.9084 232.437 22.5363C233.342 19.7244 234.946 18.6907 236.344 17.7809C237.536 16.9953 238.564 16.3337 239.14 14.5556L239.263 13.9767C239.345 13.6459 239.345 13.2737 239.345 12.9429C239.263 10.2551 236.878 8.10486 234 8.22891C231.163 8.31161 228.901 10.5859 228.983 13.2737C229.025 13.9767 229.189 14.6383 229.477 15.2172L229.641 15.548L229.436 15.8788C228.983 16.6231 228.737 17.4501 228.778 18.2772Z" fill="white"/>
<path d="M246.582 35.6031C245.965 36.3474 245.308 36.9263 245.225 37.0504C245.102 37.1745 244.896 37.2572 244.732 37.2572C244.526 37.2572 244.321 37.1745 244.156 37.0504C243.868 36.7609 243.868 36.3474 244.197 36.058C244.526 35.7685 245.225 35.0656 245.76 34.3626L246.007 33.9491C246.623 32.998 246.911 31.8816 246.87 30.7651C246.829 29.2765 246.171 27.8705 245.02 26.8368C244.979 26.7954 244.937 26.7541 244.855 26.7127L244.814 26.6714C243.91 25.927 242.553 25.5549 241.114 25.5962C239.962 25.6376 237.783 26.0511 236.097 28.16L235.768 28.5735L235.234 28.4081C234.781 28.2427 233.548 28.3254 232.232 28.987C231.328 29.4832 230.259 30.3929 229.806 32.0056C229.148 34.4867 231.04 35.9339 231.739 36.4301C232.068 36.6782 232.232 37.0504 232.027 37.3812C231.903 37.588 231.657 37.7534 231.41 37.7534C231.286 37.7534 231.163 37.712 231.04 37.6707C230.464 37.3812 229.683 36.7609 229.107 35.8926C228.943 36.4301 228.819 37.0091 228.861 37.588C228.902 38.7044 229.313 39.7382 230.012 40.6479L230.217 40.896C230.834 41.599 231.698 42.2606 232.397 42.7982C232.726 43.0463 233.013 43.253 233.219 43.4598C235.275 45.2379 234.905 47.4295 234.37 48.2978C234.247 48.5459 234 48.67 233.754 48.67C233.63 48.67 233.507 48.6286 233.383 48.5873C233.013 48.4219 232.89 48.0084 233.054 47.6362C233.137 47.4708 233.877 45.9408 232.191 44.4522C231.985 44.2868 231.698 44.08 231.41 43.8319C230.875 43.4184 230.259 42.9636 229.683 42.426C229.642 42.6328 229.642 42.8395 229.642 43.0463C229.642 43.5838 229.806 44.1214 230.053 44.5762L230.217 44.9071L230.012 45.2379C229.601 45.9408 229.395 46.6851 229.436 47.4708C229.518 49.8278 231.615 51.7299 234.124 51.6472C235.892 51.6059 237.413 50.6135 238.153 49.0835L238.276 48.794L238.564 48.7113C239.387 48.4219 240.086 47.8843 240.538 47.1813C239.88 47.0986 239.304 46.9332 238.77 46.6024C237.783 45.9822 237.125 44.9898 237.002 43.8319C236.878 42.7982 237.207 41.6403 237.577 40.7306C236.961 40.9374 236.303 41.0614 235.686 41.0614C235.069 41.0614 234.494 41.0201 234.082 40.8547C233.712 40.7306 233.507 40.3171 233.671 39.945C233.836 39.5728 234.247 39.4074 234.658 39.5728C235.48 39.9036 238.112 39.6142 239.017 38.0015C239.921 36.3474 240.168 35.4791 239.839 34.6521C239.51 33.8664 238.852 33.5769 238.4 33.4529C237.536 33.2875 236.508 33.5769 235.727 34.2385C235.439 34.4867 234.946 34.4867 234.658 34.1972C234.37 33.9077 234.411 33.4529 234.699 33.2048C235.645 32.3778 236.837 31.9229 238.03 31.9643C238.4 30.641 238.071 29.4005 238.071 29.4005C237.989 29.0283 238.235 28.6562 238.605 28.5321C239.017 28.4494 239.387 28.6562 239.51 29.0283C239.51 29.111 239.921 30.641 239.469 32.2537C240.25 32.6259 240.867 33.2461 241.237 34.0318C241.936 35.7685 241.114 37.3399 239.633 39.7382C239.633 39.7382 238.359 41.9711 238.523 43.5838C238.605 44.2868 238.975 44.9484 239.633 45.3206C243.745 47.7603 248.597 41.0614 246.582 35.6031Z" fill="white"/>
<path d="M43.5023 3.18405V13.8939H29.0289V58.0979H15.7068V13.8939H1.2334V3.18405H43.5023Z" stroke="#530EAA" stroke-width="2" stroke-miterlimit="10"/>
<path d="M90.8703 39.4901H60.7722C60.9778 42.2192 61.8413 44.2868 63.3626 45.6927C64.884 47.14 66.7754 47.8429 68.9957 47.8429C72.3263 47.8429 74.6288 46.437 75.9035 43.6251H90.0479C89.3078 46.4784 87.9921 49.0835 86.1007 51.3577C84.2092 53.6734 81.8244 55.4515 78.9873 56.7747C76.1502 58.0979 72.943 58.7182 69.4069 58.7182C65.1718 58.7182 61.3478 57.8085 58.0584 55.989C54.7279 54.1696 52.1375 51.5645 50.2872 48.1737C48.4369 44.783 47.4912 40.8133 47.4912 36.2647C47.4912 31.7161 48.3958 27.7464 50.2461 24.3557C52.0964 20.9649 54.6868 18.3598 57.9762 16.5404C61.3067 14.721 65.0896 13.8112 69.4069 13.8112C73.6009 13.8112 77.3426 14.6796 80.5909 16.4577C83.8392 18.2358 86.4296 20.7582 88.2388 24.0662C90.0891 27.3329 90.9937 31.1786 90.9937 35.5617C91.117 36.8436 91.0348 38.1255 90.8703 39.4901ZM77.5071 32.0469C77.5071 29.7726 76.7258 27.9119 75.1634 26.5886C73.6009 25.2241 71.6684 24.5624 69.3247 24.5624C67.1043 24.5624 65.2129 25.224 63.6916 26.5059C62.1702 27.8291 61.2245 29.6486 60.8544 32.0469H77.5071Z" stroke="#530EAA" stroke-width="2" stroke-miterlimit="10"/>
<path d="M105.672 56.7747C102.711 55.4514 100.368 53.6734 98.6819 51.3991C96.955 49.1248 96.0093 46.6024 95.8037 43.7492H108.961C109.126 45.2792 109.825 46.4783 111.058 47.4294C112.292 48.3805 113.813 48.8353 115.664 48.8353C117.308 48.8353 118.624 48.5045 119.529 47.8429C120.433 47.1813 120.885 46.3543 120.885 45.2792C120.885 44.0386 120.228 43.0876 118.953 42.5086C117.637 41.9297 115.54 41.2268 112.662 40.5238C109.537 39.7795 106.947 39.0352 104.891 38.2082C102.835 37.3811 101.026 36.1406 99.5043 34.3625C97.9829 32.6258 97.2428 30.2688 97.2428 27.2916C97.2428 24.7692 97.9418 22.4949 99.2987 20.4273C100.656 18.3598 102.711 16.7471 105.384 15.5479C108.057 14.3488 111.223 13.7285 114.923 13.7285C120.351 13.7285 124.668 15.0931 127.793 17.7809C130.918 20.51 132.727 24.1075 133.221 28.5734H120.927C120.721 27.0435 120.063 25.8443 118.953 24.9759C117.843 24.1075 116.363 23.6527 114.553 23.6527C112.991 23.6527 111.798 23.9421 110.976 24.5624C110.154 25.1827 109.743 25.9683 109.743 27.0435C109.743 28.284 110.4 29.235 111.716 29.8553C113.032 30.4756 115.088 31.0958 117.884 31.7161C121.091 32.5431 123.723 33.3701 125.737 34.1971C127.752 35.0242 129.52 36.306 131.083 38.1255C132.604 39.9449 133.385 42.3432 133.467 45.3619C133.467 47.9256 132.768 50.1999 131.329 52.2261C129.89 54.2523 127.834 55.8236 125.162 56.9401C122.489 58.0979 119.405 58.6768 115.869 58.6768C111.963 58.7595 108.591 58.0979 105.672 56.7747Z" stroke="#530EAA" stroke-width="2" stroke-miterlimit="10"/>
<path d="M165.704 46.7678V58.0979H158.919C154.109 58.0979 150.326 56.8987 147.653 54.5417C144.939 52.1847 143.624 48.2978 143.624 42.9222V25.5548H138.319V14.4728H143.624V3.80432H156.946V14.4728H165.663V25.5962H156.946V43.1289C156.946 44.4522 157.275 45.3619 157.891 45.9408C158.508 46.5197 159.536 46.8091 161.016 46.8091H165.704V46.7678Z" stroke="#530EAA" stroke-width="2" stroke-miterlimit="10"/>
</g>
<defs>
<clipPath id="clip0">
<rect width="259" height="60" fill="white"/>
</clipPath>
</defs>
</svg>
